{"title":"Girls Next Door 1979 XviD AVI [1Gb]","uid":5590885,"size":1105451939,"categoryP":"video","categoryS":"movies","magnet":"?xt=urn:btih:1cbba7d022591d0462485347f7818c5439096c62&amp;dn=Girls+Next+Door+1979+XviD+AVI+%5B1Gb%5D&amp;tr=udp%3A%2F%2Ftracker.openbittorrent.com%3A80&amp;tr=udp%3A%2F%2Fopen.demonii.com%3A1337&amp;tr=udp%3A%2F%2Ftracker.coppersurfer.tk%3A6969&amp;tr=udp%3A%2F%2Fexodus.desync.com%3A6969","seeders":0,"leechers":0,"uploader":"indstud75","files":-1,"time":1274864003,"description":"Girls Next Door 1979\n====================\n\nA relative film rarity, not very well distributed beyond the Hollywoodland\nindependent filmmaker corridor.\n\nA fairly hilarious low budget film, something of a pioneering effort in the\n*teens running wild*, enabled by dysfunctional parents genre.\n\nIf you don't laugh at least once, check for a heartbeat.\n\nIncludes Kirsten Baker, once a hot female property of the industry.\n\nRated R (USA) for nudity, language and sexual situations.\n\nGood quality XviD AVI (sourced from VHS), with MD5 file.\n\n----------\n\nComplete name                    : GirlsNextDoor-KirstenBaker-1979.avi\nFormat                           : AVI\nFormat/Info                      : Audio Video Interleave\nFile size                        : 1.03 GiB\nDuration                         : 1h 29mn\nOverall bit rate                 : 1 639 Kbps\n\nFormat                           : MPEG-4 Visual\nCodec ID                         : XVID\nBit rate                         : 1 499 Kbps\nWidth                            : 720 pixels\nHeight                           : 480 pixels\nDisplay aspect ratio             : 1.500\nFrame rate                       : 29.970 fps\nStandard                         : NTSC\nScan type                        : Progressive\nStream size                      : 964 MiB (91%)\n\nFormat                           : MPEG Audio\nFormat version                   : Version 1\nFormat profile                   : Layer 3\nMode                             : Joint stereo / MS Stereo\nCodec ID/Hint                    : MP3\nDuration                         : 1h 29mn\nBit rate mode                    : Constant\nBit rate                         : 128 Kbps\nChannel(s)                       : 2 channels\nSampling rate                    : 48.0 KHz\nStream size                      : 82.3 MiB (8%)\n\n----------\n\nPlease seed as much as you can and remember that others depend upon you,\njust as you depend upon them.\n\nDistribute elsewhere, as much as you please.\n\nOriginal seed will end at 2x.\n\n----\n\nGirlsNextDoor-KirstenBaker-1979-avi.md5 (71.0B)\nGirlsNextDoor-KirstenBaker-1979.avi (1.0GB)\nOpenTrackers.nfo (637.0B)\nReadme.nfo (2.0KB)\n\n","torrent":{"xt":"urn:btih:1cbba7d022591d0462485347f7818c5439096c62","amp;dn":"Girls+Next+Door+1979+XviD+AVI+%5B1Gb%5D","amp;tr":["udp%3A%2F%2Ftracker.openbittorrent.com%3A80","udp%3A%2F%2Fopen.demonii.com%3A1337","udp%3A%2F%2Ftracker.coppersurfer.tk%3A6969","udp%3A%2F%2Fexodus.desync.com%3A6969"],"infoHash":"1cbba7d022591d0462485347f7818c5439096c62","infoHashBuffer":{"type":"Buffer","data":[28,187,167,208,34,89,29,4,98,72,83,71,247,129,140,84,57,9,108,98]},"announce":[],"urlList":[]}}